<?xml version="1.0" encoding="UTF-8" standalone="no"?>
<!DOCTYPE svg PUBLIC "-//W3C//DTD SVG 1.1//EN" "http://www.w3.org/Graphics/SVG/1.1/DTD/svg11.dtd">
<svg xmlns="http://www.w3.org/2000/svg" version="1.1" viewBox="0.00 0.00 399.00 130.00">
<path fill="#f2df74" d="
  M 244.69 47.29
  Q 242.51 49.48 240.03 51.54
  C 238.28 53.01 238.05 55.28 237.41 57.32
  C 235.67 62.84 231.43 69.11 224.88 68.31
  Q 219.91 67.71 220.60 62.94
  C 221.19 58.91 226.30 56.27 229.86 55.02
  A 2.27 2.27 0.0 0 0 231.37 53.20
  Q 231.96 49.26 232.19 45.32
  Q 232.26 44.22 231.70 45.17
  C 230.40 47.44 229.54 49.88 228.10 52.09
  C 226.43 54.63 222.61 54.53 221.03 52.07
  Q 220.58 51.38 220.29 52.15
  C 219.32 54.81 217.40 60.65 213.98 60.85
  Q 209.23 61.12 207.35 57.35
  C 203.87 50.39 202.20 43.30 201.15 35.68
  A 0.80 0.80 0.0 0 0 200.42 34.99
  L 196.57 34.69
  Q 195.98 34.64 195.80 35.20
  L 188.40 57.97
  A 1.51 1.50 12.3 0 1 186.80 58.99
  L 186.52 58.96
  A 0.97 0.97 0.0 0 1 185.71 57.74
  Q 189.00 45.87 193.03 35.10
  A 0.52 0.52 0.0 0 0 192.64 34.40
  Q 187.20 33.31 182.14 36.18
  Q 180.65 37.02 179.14 36.28
  A 0.58 0.57 36.6 0 1 179.00 35.34
  C 182.98 31.72 187.93 31.29 193.06 32.03
  A 1.36 1.36 0.0 0 0 194.53 31.17
  L 201.79 12.40
  Q 202.01 11.84 202.61 11.84
  L 205.35 11.84
  A 0.81 0.79 87.2 0 1 206.14 12.57
  L 207.85 32.48
  A 1.27 1.27 0.0 0 0 209.08 33.65
  Q 212.27 33.75 215.34 33.76
  Q 216.16 33.76 216.25 34.55
  A 0.74 0.73 81.7 0 1 215.65 35.36
  Q 212.54 35.94 209.33 35.72
  Q 208.33 35.65 208.43 36.64
  Q 209.46 46.92 212.47 56.80
  Q 213.12 58.94 214.25 57.01
  Q 216.47 53.23 218.75 48.07
  Q 219.19 47.08 220.94 41.18
  C 222.62 35.54 226.45 30.39 232.92 31.28
  Q 233.49 31.36 234.02 31.12
  Q 236.13 30.14 238.45 30.24
  A 1.09 1.07 88.4 0 1 239.47 31.22
  Q 240.39 40.55 239.31 48.42
  Q 239.00 50.62 240.58 49.05
  L 244.03 45.61
  Q 245.54 44.11 245.71 41.98
  L 246.75 28.51
  Q 246.89 26.64 248.75 26.91
  Q 250.53 27.17 252.03 27.81
  C 254.46 28.86 257.70 28.62 260.30 28.75
  A 2.04 2.03 6.1 0 1 262.21 31.12
  C 260.63 40.30 259.16 49.96 260.96 59.20
  Q 261.33 61.08 262.71 59.76
  C 267.18 55.46 269.93 46.55 271.19 40.58
  C 272.33 35.14 276.06 30.74 281.75 31.13
  Q 284.97 31.35 288.20 30.85
  A 1.12 1.11 83.5 0 1 289.49 31.88
  Q 289.56 32.77 289.53 33.71
  Q 289.28 45.04 288.76 56.09
  Q 288.73 56.88 288.85 57.73
  Q 289.07 59.31 289.91 57.96
  Q 293.28 52.61 297.00 44.98
  Q 298.35 42.21 298.56 39.49
  Q 298.85 35.84 299.88 31.81
  Q 300.25 30.39 301.71 30.32
  L 303.19 30.26
  Q 304.89 30.18 304.71 31.87
  Q 303.42 43.94 304.81 55.38
  Q 304.89 56.04 305.56 56.24
  A 0.57 0.56 15.9 0 0 306.27 55.85
  L 312.11 33.36
  Q 312.31 32.61 313.08 32.51
  Q 314.37 32.34 315.57 32.72
  Q 316.46 33.00 316.58 33.92
  C 317.49 41.01 318.41 48.04 320.89 54.61
  A 1.28 1.27 48.2 0 0 323.22 54.74
  Q 325.80 49.66 326.31 42.97
  Q 326.44 41.37 325.27 40.20
  Q 321.16 36.08 320.67 30.75
  C 320.49 28.76 321.29 26.44 323.25 25.60
  C 329.56 22.91 329.73 36.50 329.79 39.42
  A 1.27 1.26 8.0 0 0 330.68 40.60
  Q 333.90 41.60 337.46 41.34
  A 0.72 0.72 0.0 0 0 338.11 40.77
  C 339.34 35.17 342.95 30.70 348.95 31.13
  Q 351.94 31.35 355.12 30.87
  Q 356.34 30.68 356.48 31.91
  Q 356.61 33.01 356.57 34.13
  Q 356.21 45.53 355.72 56.75
  Q 355.69 57.52 355.96 58.24
  A 0.41 0.40 51.0 0 0 356.68 58.32
  Q 360.78 51.95 363.94 44.84
  Q 364.31 44.00 364.15 43.11
  Q 362.18 31.65 365.64 20.50
  C 366.92 16.36 370.31 9.87 375.48 10.20
  C 383.46 10.70 381.09 22.26 379.12 27.26
  Q 375.40 36.70 370.76 43.25
  Q 370.41 43.76 370.43 44.38
  Q 370.65 50.29 372.92 55.59
  A 1.84 1.84 0.0 0 0 375.73 56.33
  Q 377.48 54.99 378.53 52.90
  Q 381.13 47.71 383.36 42.47
  Q 383.80 41.44 384.87 41.78
  L 385.13 41.87
  Q 385.86 42.11 385.63 42.84
  C 384.09 47.75 380.62 58.36 374.68 58.77
  C 369.03 59.15 366.40 53.14 365.38 48.54
  Q 365.18 47.66 364.82 48.49
  C 363.52 51.44 360.13 60.03 357.09 61.15
  C 349.32 64.03 348.94 50.27 348.74 46.19
  Q 348.68 45.11 348.14 46.04
  Q 346.71 48.47 345.07 50.71
  C 343.44 52.93 339.66 53.23 338.58 50.32
  Q 337.48 47.32 337.77 44.02
  A 0.50 0.50 0.0 0 0 337.24 43.48
  Q 333.70 43.76 330.48 42.93
  A 0.90 0.90 0.0 0 0 329.36 43.71
  Q 328.87 48.30 327.55 52.78
  C 325.56 59.53 318.14 60.68 314.69 54.38
  Q 312.77 50.89 312.12 46.55
  Q 311.86 44.78 311.45 46.53
  Q 310.06 52.39 307.83 58.41
  C 306.80 61.17 303.29 62.14 301.48 59.97
  C 299.32 57.36 298.52 51.91 298.34 48.49
  Q 298.29 47.44 297.86 48.41
  C 296.59 51.32 293.10 60.06 290.10 61.15
  C 282.33 63.98 281.93 50.41 281.74 46.22
  Q 281.69 45.10 281.12 46.06
  Q 279.70 48.46 278.12 50.65
  C 276.62 52.74 273.14 53.27 271.80 50.78
  Q 271.44 50.11 271.17 50.82
  C 269.74 54.52 266.78 61.35 262.36 62.19
  C 249.56 64.61 254.65 36.09 255.85 30.69
  A 0.38 0.37 10.6 0 0 255.53 30.24
  L 250.93 29.61
  Q 250.52 29.56 250.50 29.96
  Q 249.73 42.79 246.97 55.74
  Q 246.69 57.08 245.32 57.07
  Q 245.11 57.07 244.90 57.05
  Q 243.85 56.95 243.98 55.91
  L 245.07 47.47
  Q 245.16 46.81 244.69 47.29
  Z
  M 374.23 13.51
  C 370.43 21.11 369.40 30.01 369.81 38.64
  Q 369.89 40.39 370.72 38.84
  C 374.30 32.21 379.96 20.18 376.11 13.46
  A 1.07 1.07 0.0 0 0 374.23 13.51
  Z
  M 197.07 31.95
  A 0.31 0.31 0.0 0 0 197.31 32.37
  L 200.47 32.88
  A 0.31 0.31 0.0 0 0 200.83 32.56
  L 200.50 24.58
  A 0.31 0.31 0.0 0 0 199.90 24.49
  L 197.07 31.95
  Z
  M 325.8153 33.5346
  A 1.66 0.35 82.2 0 0 325.9368 31.8425
  A 1.66 0.35 82.2 0 0 325.3647 30.2454
  A 1.66 0.35 82.2 0 0 325.2432 31.9375
  A 1.66 0.35 82.2 0 0 325.8153 33.5346
  Z
  M 226.44 50.73
  C 228.99 45.48 231.63 40.34 233.35 34.87
  A 1.62 1.62 0.0 0 0 231.55 32.79
  C 230.58 32.95 229.47 34.00 228.97 34.82
  Q 225.04 41.34 224.84 50.50
  A 0.73 0.71 -62.6 0 0 224.96 50.90
  Q 225.30 51.45 225.71 51.34
  Q 226.21 51.20 226.44 50.73
  Z
  M 279.58 34.28
  C 276.03 37.99 274.19 43.64 274.58 49.25
  Q 274.76 51.89 276.18 49.66
  Q 280.42 42.97 283.15 35.51
  A 1.64 1.64 0.0 0 0 281.35 33.33
  Q 280.34 33.50 279.58 34.28
  Z
  M 347.26 33.71
  C 343.09 37.64 341.17 43.27 341.60 49.19
  Q 341.80 51.94 343.26 49.60
  Q 346.48 44.43 349.75 36.81
  Q 350.18 35.80 350.11 34.82
  A 1.69 1.69 0.0 0 0 347.26 33.71
  Z
  M 227.22 66.04
  C 229.35 63.78 230.34 59.72 230.72 56.70
  Q 230.78 56.19 230.31 56.39
  C 226.75 57.83 221.66 60.93 223.71 65.46
  A 2.14 2.13 -35.5 0 0 227.22 66.04
  Z"
/>
<path fill="#f2df74" d="
  M 86.31 115.38
  Q 87.95 113.62 89.04 111.62
  Q 99.14 93.22 105.94 72.33
  Q 106.42 70.86 107.95 71.07
  L 110.52 71.43
  A 1.91 1.90 -79.9 0 1 112.11 73.71
  Q 111.40 77.04 110.33 80.16
  Q 103.86 99.05 95.41 115.97
  C 93.59 119.63 90.44 121.73 86.20 121.73
  Q 76.75 121.74 72.58 113.48
  C 65.10 98.70 61.18 82.40 59.25 65.94
  A 1.78 1.78 0.0 0 0 57.66 64.38
  L 49.08 63.54
  A 1.46 1.45 13.0 0 0 47.57 64.48
  Q 44.47 72.66 42.12 79.92
  Q 37.03 95.68 31.02 115.23
  A 3.26 3.26 0.0 0 1 26.80 117.34
  L 26.24 117.14
  Q 24.48 116.51 24.96 114.70
  Q 32.01 88.68 41.16 64.32
  A 0.99 0.99 0.0 0 0 40.41 63.00
  Q 27.42 60.67 18.07 66.44
  C 15.61 67.96 13.09 68.25 10.43 67.28
  A 1.23 1.22 33.2 0 1 10.00 65.25
  C 18.70 56.81 30.13 56.22 41.55 57.68
  C 43.86 57.97 44.42 55.84 45.08 54.20
  Q 51.78 37.52 58.66 19.24
  C 59.42 17.22 59.67 13.20 62.50 13.05
  Q 65.52 12.90 68.42 13.04
  A 1.86 1.86 0.0 0 1 70.18 14.75
  L 73.99 59.31
  A 2.08 2.08 0.0 0 0 75.91 61.21
  Q 82.15 61.69 88.95 61.34
  Q 90.79 61.25 92.24 62.22
  A 1.31 1.31 0.0 0 1 92.28 64.37
  Q 90.81 65.44 88.89 65.62
  Q 82.45 66.22 76.30 65.97
  A 1.27 1.26 -2.3 0 0 75.00 67.38
  Q 77.41 88.11 82.77 108.19
  Q 83.80 112.04 85.58 115.29
  Q 85.88 115.84 86.31 115.38
  Z
  M 50.00 57.91
  A 0.37 0.37 0.0 0 0 50.28 58.41
  L 57.96 59.67
  A 0.37 0.37 0.0 0 0 58.39 59.29
  L 57.70 39.45
  A 0.37 0.37 0.0 0 0 56.98 39.33
  L 50.00 57.91
  Z"
/>
<path fill="#f2df74" d="
  M 149.26 47.93
  C 147.66 51.69 145.82 59.13 139.85 56.86
  C 136.99 55.77 135.83 52.30 135.51 49.49
  Q 135.39 48.47 134.92 49.38
  Q 134.82 49.58 134.75 49.78
  Q 134.63 50.07 134.43 50.32
  Q 128.32 57.72 120.36 52.93
  C 119.42 52.36 118.68 51.44 117.84 50.76
  Q 117.27 50.31 117.23 51.03
  L 116.85 57.93
  Q 116.81 58.67 116.07 58.69
  L 113.97 58.77
  Q 112.87 58.81 112.72 57.72
  L 111.79 50.99
  Q 111.66 50.09 111.31 50.93
  C 109.87 54.40 107.76 58.34 103.46 58.25
  C 99.42 58.17 98.70 52.92 98.73 49.75
  Q 98.79 43.99 99.05 38.55
  Q 99.19 35.83 98.38 32.98
  A 0.98 0.97 -32.8 0 0 96.70 32.62
  Q 93.31 36.58 91.60 41.48
  Q 89.03 48.83 87.55 57.12
  Q 87.42 57.85 86.69 57.88
  L 83.55 58.03
  Q 82.72 58.07 82.60 57.26
  Q 80.61 43.94 83.23 29.67
  Q 83.37 28.91 84.15 28.90
  L 87.42 28.89
  A 0.86 0.78 -90.0 0 1 88.20 29.75
  L 88.25 39.46
  Q 88.26 41.01 88.91 39.60
  Q 90.38 36.45 92.39 33.59
  C 94.76 30.24 100.14 27.49 102.38 32.77
  Q 103.58 35.59 103.35 39.12
  C 103.00 44.31 102.09 50.33 103.74 55.50
  A 1.09 1.08 -36.0 0 0 105.65 55.80
  C 109.24 50.84 111.58 45.34 111.66 38.84
  Q 111.78 28.84 113.13 18.29
  Q 113.28 17.11 114.47 17.02
  L 117.21 16.80
  Q 118.46 16.70 118.41 17.96
  L 117.91 32.82
  Q 117.88 33.72 118.45 33.03
  C 120.29 30.81 121.98 28.85 124.65 27.60
  C 128.08 26.00 132.34 27.22 132.66 31.49
  C 133.16 38.28 125.73 44.02 120.01 45.17
  Q 119.39 45.29 119.75 45.81
  Q 121.64 48.59 123.75 51.00
  C 128.27 56.15 132.32 48.75 134.00 45.08
  Q 135.31 42.22 135.60 39.23
  Q 135.99 35.23 137.20 31.36
  Q 137.56 30.21 138.75 30.35
  L 139.79 30.48
  Q 141.00 30.62 140.89 31.84
  C 140.23 38.66 139.29 48.12 141.62 54.85
  A 0.76 0.76 0.0 0 0 143.01 54.95
  L 148.77 43.79
  A 4.76 4.73 58.2 0 0 149.30 41.49
  Q 149.13 33.82 150.23 25.00
  Q 150.32 24.26 149.58 24.26
  L 145.56 24.22
  Q 144.95 24.21 144.77 23.63
  Q 144.66 23.29 144.73 22.95
  A 1.06 1.05 1.1 0 1 145.61 22.11
  L 150.09 21.45
  Q 150.82 21.35 151.04 20.64
  L 152.35 16.27
  A 1.11 1.10 -81.3 0 1 153.42 15.48
  L 157.02 15.50
  A 0.76 0.75 1.1 0 1 157.77 16.27
  L 157.66 20.25
  A 0.58 0.57 0.5 0 0 158.25 20.84
  L 172.10 20.63
  Q 173.35 20.61 173.21 21.85
  L 173.17 22.24
  A 0.81 0.81 0.0 0 1 172.41 22.95
  L 157.96 23.80
  A 0.82 0.81 -88.3 0 0 157.20 24.52
  Q 156.13 34.66 155.88 45.23
  Q 155.73 51.36 156.91 57.09
  Q 157.11 58.09 157.69 58.87
  Q 159.04 60.70 160.18 58.73
  Q 163.96 52.21 166.33 43.52
  Q 166.63 42.41 167.76 42.67
  L 168.28 42.79
  Q 169.17 43.00 168.97 43.89
  Q 167.20 51.82 164.42 57.33
  Q 161.76 62.60 156.03 61.29
  C 151.50 60.25 150.08 51.79 149.77 48.02
  Q 149.68 46.96 149.26 47.93
  Z
  M 119.06 41.50
  Q 126.24 39.49 128.62 32.71
  Q 129.12 31.29 128.58 29.88
  A 1.19 1.19 0.0 0 0 126.72 29.37
  Q 121.07 33.85 118.83 41.27
  A 0.19 0.19 0.0 0 0 119.06 41.50
  Z"
/>
<circle fill="#f2df74" cx="139.94" cy="25.49" r="2.20"/>
<ellipse fill="#f2df74" cx="0.00" cy="0.00" transform="translate(88.66,83.17) rotate(-0.6)" rx="6.59" ry="6.22"/>
</svg>
